<svg width="1827" height="252" viewBox="0 0 1827 252" fill="none" xmlns="http://www.w3.org/2000/svg">
<g clip-path="url(#clip0_8268_15444)">
<mask id="mask0_8268_15444" style="mask-type:luminance" maskUnits="userSpaceOnUse" x="0" y="0" width="1827" height="252">
<path d="M0 0H1827V252H0V0Z" fill="white"/>
</mask>
<g mask="url(#mask0_8268_15444)">
<mask id="mask1_8268_15444" style="mask-type:luminance" maskUnits="userSpaceOnUse" x="0" y="0" width="1827" height="252">
<path d="M1827 0H0V252H1827V0Z" fill="white"/>
</mask>
<g mask="url(#mask1_8268_15444)">
<g filter="url(#filter0_dd_8268_15444)">
<path d="M-30.714 16H-213C-236.748 16 -256 35.252 -256 59V81.477C-256 105.225 -236.748 124.477 -213 124.477H-30.714C-6.966 124.477 12.286 105.225 12.286 81.477V59C12.286 35.252 -6.966 16 -30.714 16Z" fill="white"/>
<path d="M195.575 16H13.2891C-10.4589 16 -29.7109 35.252 -29.7109 59V81.477C-29.7109 105.225 -10.4589 124.477 13.2891 124.477H195.575C219.323 124.477 238.575 105.225 238.575 81.477V59C238.575 35.252 219.323 16 195.575 16Z" fill="white"/>
<path d="M35.57 81.1653C34.8926 81.0688 34.2261 80.9068 33.58 80.6813C31.742 80.0891 30.1093 78.9881 28.8713 77.506C27.6333 76.024 26.8406 74.2214 26.585 72.3073C26.3221 70.7876 26.4127 69.2278 26.8497 67.7487C27.2867 66.2697 28.0584 64.9111 29.105 63.7783C29.972 62.7679 31.0312 61.9399 32.2211 61.3424C33.411 60.745 34.7077 60.3901 36.036 60.2983C37.4454 60.153 38.8695 60.302 40.2183 60.736C41.567 61.17 42.8108 61.8794 43.871 62.8193C45.8874 64.516 47.1674 66.9284 47.442 69.5493C47.693 71.5593 47.337 73.5983 46.419 75.4033C45.4656 77.3481 43.9264 78.945 42.018 79.9693C40.949 80.5593 39.783 80.9493 38.575 81.1193H38.438C37.461 81.1653 36.484 81.1653 35.57 81.1653ZM40.401 67.8513C40.3837 67.4675 40.2505 67.098 40.019 66.7915C39.7875 66.485 39.4684 66.2558 39.104 66.1343C38.4896 65.9281 37.8324 65.884 37.196 66.0063C37.068 66.0063 37.022 66.0063 36.986 65.8693C36.867 65.3763 36.721 64.8833 36.612 64.3893C36.612 64.2253 36.502 64.1983 36.356 64.2443L35.57 64.4443C35.443 64.4443 35.388 64.5183 35.433 64.6733C35.57 65.1663 35.68 65.6593 35.817 66.1533C35.863 66.2983 35.817 66.3533 35.68 66.3813C35.4951 66.4173 35.3121 66.463 35.132 66.5183C35.013 66.5183 34.977 66.5183 34.949 66.4083C34.831 65.8973 34.657 65.3943 34.566 64.8923C34.566 64.7733 34.511 64.7283 34.374 64.7733C34.1005 64.8554 33.8236 64.9254 33.544 64.9833C33.269 65.0383 33.388 65.0833 33.415 65.2033C33.543 65.6873 33.662 66.1803 33.799 66.6633C33.854 66.8553 33.799 66.9013 33.625 66.9383L31.799 67.4133C31.671 67.4133 31.625 67.4763 31.671 67.6233C31.762 67.9233 31.845 68.2253 31.909 68.5363C31.909 68.6733 31.999 68.6823 32.119 68.6463L32.831 68.4633C32.9065 68.4398 32.986 68.4318 33.0646 68.4398C33.1433 68.4479 33.2195 68.4718 33.2887 68.5101C33.3578 68.5484 33.4185 68.6003 33.467 68.6628C33.5156 68.7252 33.5509 68.7968 33.571 68.8733L34.785 73.7053C34.867 74.0053 34.785 74.1793 34.447 74.2713L33.817 74.4353C33.707 74.4353 33.653 74.4903 33.671 74.6273C33.671 74.9833 33.744 75.3483 33.762 75.7143C33.762 75.8693 33.817 75.9053 33.972 75.8603C34.602 75.6863 35.232 75.5403 35.862 75.3673C36.018 75.3213 36.064 75.3673 36.1 75.5133C36.228 76.0243 36.365 76.5263 36.493 77.0383C36.493 77.1663 36.575 77.1933 36.693 77.1563C36.955 77.0763 37.22 77.0083 37.488 76.9563C37.653 76.9563 37.68 76.8563 37.643 76.7003C37.506 76.1983 37.388 75.6953 37.251 75.2023C37.251 75.0743 37.251 75.0103 37.379 74.9833C37.552 74.9543 37.723 74.9123 37.89 74.8553C38.045 74.8003 38.1 74.8553 38.146 75.0013C38.264 75.5033 38.401 76.0063 38.529 76.5083C38.529 76.6453 38.611 76.6723 38.757 76.6363C39.025 76.5523 39.296 76.4823 39.57 76.4263C39.716 76.4263 39.725 76.3443 39.689 76.2163C39.552 75.7143 39.424 75.2023 39.287 74.7003C39.287 74.5723 39.287 74.5173 39.415 74.4803C40.0527 74.3127 40.6432 74.0006 41.141 73.5683C41.4906 73.2636 41.7453 72.8648 41.8747 72.4194C42.0041 71.9741 42.0028 71.501 41.871 71.0563C41.7272 70.6541 41.4847 70.2945 41.1656 70.0106C40.8465 69.7266 40.4612 69.5274 40.045 69.4313C39.853 69.3763 39.881 69.3393 39.99 69.2213C40.2831 68.8268 40.4285 68.342 40.401 67.8513ZM182.973 80.7083H179.202C179.019 80.7083 178.983 80.6633 178.983 80.4903V72.9923C179 72.3221 178.91 71.6535 178.718 71.0113C178.615 70.6468 178.397 70.3256 178.095 70.0964C177.794 69.8672 177.426 69.7426 177.047 69.7413C176.366 69.7075 175.684 69.7845 175.028 69.9693C174.864 69.9693 174.827 70.0793 174.827 70.2433V80.5263C174.827 80.6633 174.827 80.6903 174.663 80.6903H171.01C170.892 80.6903 170.837 80.6903 170.855 80.5443C170.86 80.5112 170.86 80.4775 170.855 80.4443V60.9203C170.855 60.7373 170.855 60.6643 171.092 60.6373C172.27 60.4633 173.439 60.2623 174.617 60.0703C174.864 60.0703 174.864 60.0703 174.864 60.2803V66.4543C174.864 66.7183 174.864 66.7183 175.111 66.6453C176.47 66.2411 177.914 66.2189 179.284 66.5813C180.172 66.7834 180.979 67.246 181.602 67.9099C182.225 68.5737 182.636 69.4086 182.781 70.3073C182.872 70.6957 182.93 71.0911 182.955 71.4893C182.957 71.4964 182.96 71.5032 182.964 71.5093C182.969 71.5153 182.974 71.5193 182.98 71.5233C182.986 71.5275 182.993 71.5303 183.001 71.5313C182.973 74.6183 182.973 77.6403 182.973 80.7083Z" fill="#5DB48E"/>
<path d="M62.537 70.6943C63.129 70.9043 63.682 71.2133 64.171 71.6073C64.7255 72.0853 65.1179 72.7237 65.294 73.4343C65.7125 74.8432 65.5891 76.3577 64.948 77.6803C64.4921 78.5637 63.7744 79.2846 62.893 79.7443C61.8547 80.2865 60.7244 80.6304 59.56 80.7583C58.348 80.9021 57.1263 80.9475 55.907 80.8943C54.2928 80.9015 52.6815 80.7579 51.094 80.4653C50.93 80.4653 50.875 80.3743 50.875 80.2103V62.6673C50.875 62.5033 50.875 62.4393 51.085 62.4113C51.998 62.2473 52.911 62.1563 53.898 62.0833C54.924 61.9918 55.9541 61.9551 56.984 61.9733C58.3904 61.9684 59.7901 62.1682 61.139 62.5663C62.2571 62.8996 63.2253 63.6099 63.879 64.5763C64.327 65.2743 64.571 66.0843 64.582 66.9133C64.621 67.4661 64.5531 68.0212 64.382 68.5483C64.0502 69.4109 63.439 70.1376 62.646 70.6123L62.528 70.6943C62.528 70.6943 62.546 70.6763 62.537 70.6943ZM54.92 75.0323V77.2143C54.92 77.3513 54.92 77.4243 55.112 77.4343C55.935 77.5113 56.762 77.5393 57.587 77.5163C58.2514 77.4983 58.9109 77.3968 59.55 77.2143C60.03 77.1033 60.465 76.8523 60.802 76.4933C61.037 76.2054 61.1964 75.8633 61.2656 75.4981C61.3347 75.1329 61.3115 74.7562 61.1981 74.4022C61.0846 74.0483 60.8844 73.7283 60.6158 73.4715C60.3472 73.2146 60.0186 73.0289 59.66 72.9313C58.9352 72.7448 58.1894 72.6527 57.441 72.6573H55.121C54.966 72.6573 54.921 72.6573 54.921 72.8583V75.0323H54.92ZM54.92 67.4253V69.2513C54.92 69.3883 54.92 69.4253 55.094 69.4253H57.45C58.0825 69.4367 58.7124 69.341 59.313 69.1423C59.5781 69.0398 59.8169 68.8795 60.0121 68.673C60.2074 68.4665 60.3541 68.2191 60.4415 67.9487C60.529 67.6783 60.5551 67.3919 60.5178 67.1101C60.4805 66.8284 60.3808 66.5586 60.226 66.3203C60.0763 66.1021 59.8844 65.9162 59.6616 65.7735C59.4389 65.6308 59.1897 65.5341 58.929 65.4893C57.6495 65.2762 56.3472 65.2362 55.057 65.3703C54.92 65.3703 54.947 65.4613 54.947 65.5443C54.939 66.2103 54.939 66.8133 54.939 67.4243H54.92V67.4253Z" fill="#4E4E4E"/>
<path d="M138.937 61.7749C140.217 61.7739 141.49 61.9709 142.709 62.3589C143.309 62.5489 143.887 62.7989 144.435 63.1089C144.545 63.1719 144.554 63.2269 144.517 63.3369C144.143 64.3689 143.768 65.3999 143.403 66.4319C143.357 66.5599 143.303 66.5419 143.202 66.4959C142.235 66.0202 141.195 65.7115 140.125 65.5829C139.008 65.3985 137.863 65.4926 136.791 65.8569C136.177 66.0945 135.621 66.4625 135.162 66.9355C134.703 67.4085 134.353 67.9753 134.134 68.5969C133.769 69.633 133.623 70.7335 133.705 71.8289C133.725 72.6199 133.858 73.4039 134.097 74.1589C134.34 74.9951 134.827 75.7398 135.496 76.2976C136.165 76.8554 136.985 77.2009 137.851 77.2899C139.576 77.532 141.334 77.3115 142.946 76.6509L143.54 76.3859C143.631 76.3409 143.677 76.3309 143.723 76.4499C144.079 77.4909 144.435 78.5229 144.8 79.5549C144.864 79.7289 144.736 79.7649 144.645 79.8109C143.91 80.1895 143.131 80.4751 142.325 80.6609C140.831 81.0195 139.293 81.1543 137.759 81.0609C136.349 81.017 134.964 80.6748 133.696 80.0569C132.357 79.3843 131.257 78.3164 130.545 76.9979C129.864 75.6957 129.466 74.2645 129.376 72.7979C129.263 71.4769 129.35 70.1479 129.632 68.8519C129.953 67.2968 130.674 65.8523 131.723 64.6609C132.811 63.4487 134.23 62.582 135.805 62.1679C136.825 61.8902 137.88 61.7579 138.937 61.7749Z" fill="#5DB48E"/>
<path d="M107.716 73.7893C107.744 75.0788 107.462 76.3562 106.894 77.5143C106.424 78.4838 105.711 79.3153 104.824 79.9282C103.938 80.5411 102.908 80.9145 101.835 81.0123C100.507 81.2153 99.1477 81.0478 97.9081 80.5283C96.5746 79.9803 95.4757 78.9816 94.8032 77.7063C94.2149 76.5777 93.902 75.326 93.8901 74.0533C93.8129 72.7727 94.0319 71.4915 94.5301 70.3093C94.9821 69.1837 95.745 68.2099 96.7297 67.5016C97.7144 66.7934 98.8802 66.3798 100.091 66.3093C101.398 66.1633 102.72 66.3849 103.908 66.9493C105.158 67.5363 106.176 68.5224 106.803 69.7523C107.436 71.0019 107.75 72.3889 107.716 73.7893ZM103.625 73.6423C103.632 72.8532 103.47 72.0717 103.15 71.3503C103.012 71.0002 102.8 70.684 102.529 70.4237C102.257 70.1634 101.932 69.965 101.576 69.8423C101.221 69.7192 100.843 69.6745 100.468 69.7111C100.093 69.7477 99.7312 69.8647 99.4061 70.0543C98.7637 70.4732 98.3138 71.13 98.1551 71.8803C97.9376 72.6331 97.8603 73.4195 97.9272 74.2003C97.9492 74.9073 98.1232 75.6023 98.4382 76.2363C98.6571 76.7123 99.0199 77.1076 99.4754 77.3665C99.9309 77.6254 100.456 77.7348 100.977 77.6793C101.43 77.6579 101.868 77.5096 102.241 77.2513C102.614 76.993 102.907 76.635 103.086 76.2183C103.458 75.4122 103.634 74.5294 103.598 73.6423H103.625Z" fill="#4E4E4E"/>
<path d="M153.371 72.1611C153.415 71.8014 153.379 71.4364 153.265 71.0923C153.151 70.7482 152.963 70.4336 152.713 70.1711C152.37 69.8664 151.937 69.6833 151.48 69.6501C149.991 69.4959 148.487 69.648 147.06 70.0971C146.914 70.0971 146.869 70.0971 146.841 69.9701C146.704 69.0561 146.549 68.0881 146.394 67.1571C146.394 66.9831 146.394 66.9011 146.576 66.8551C147.813 66.5179 149.084 66.325 150.366 66.2801C151.403 66.2161 152.444 66.2901 153.462 66.5001C154.081 66.6091 154.671 66.8475 155.191 67.1999C155.712 67.5523 156.153 68.0107 156.485 68.5451C156.878 69.2726 157.112 70.0759 157.17 70.9011C157.192 71.3111 157.192 71.7231 157.17 72.1341V80.0971C157.17 80.2701 157.17 80.3341 156.951 80.3711C155.575 80.6677 154.18 80.8691 152.777 80.9741C151.448 81.0882 150.11 81.0327 148.796 80.8091C147.97 80.6715 147.189 80.3431 146.513 79.8501C146.089 79.5232 145.741 79.1096 145.491 78.637C145.24 78.1645 145.094 77.6439 145.061 77.1101C144.97 76.4078 145.016 75.6946 145.198 75.0101C145.357 74.4778 145.634 73.9878 146.006 73.5756C146.379 73.1634 146.839 72.8394 147.353 72.6271C148.311 72.2109 149.34 71.9844 150.385 71.9601C151.385 71.8949 152.389 71.9625 153.371 72.1611ZM153.371 76.3161V74.9461C153.371 74.8191 153.371 74.7731 153.215 74.7551C152.868 74.7551 152.521 74.6551 152.174 74.6361C151.578 74.5935 150.979 74.6335 150.394 74.7551C150.076 74.7911 149.777 74.9259 149.54 75.1404C149.303 75.3549 149.138 75.6385 149.071 75.9511C149.026 76.1587 149.026 76.3733 149.07 76.5811C149.116 76.9096 149.272 77.2128 149.512 77.4415C149.753 77.6702 150.063 77.811 150.394 77.8411C151.339 77.9736 152.298 77.9736 153.243 77.8411C153.371 77.8411 153.38 77.7681 153.38 77.6681C153.371 77.1931 153.371 76.7551 153.371 76.3161Z" fill="#5DB48E"/>
<path d="M115.54 73.9066V67.3126C115.54 67.1396 115.586 67.0756 115.75 67.0296C117.011 66.7196 118.293 66.5096 119.586 66.3996C120.763 66.2626 121.952 66.2626 123.129 66.3996C124.286 66.5175 125.369 67.0265 126.197 67.8426C126.814 68.4992 127.235 69.3153 127.412 70.1986C127.584 70.9476 127.669 71.7136 127.668 72.4816V80.4626C127.668 80.6276 127.668 80.6826 127.458 80.6826H123.878C123.704 80.6826 123.659 80.6826 123.659 80.4626V72.7556C123.665 72.1963 123.588 71.6392 123.43 71.1026C123.335 70.7064 123.109 70.3535 122.79 70.1003C122.471 69.8471 122.076 69.7082 121.668 69.7056C121.012 69.6856 120.356 69.7156 119.705 69.7966C119.54 69.7966 119.531 69.8966 119.531 70.0246V80.3896C119.531 80.6826 119.531 80.6826 119.23 80.6826H115.741C115.577 80.6826 115.531 80.6826 115.531 80.4816C115.55 78.2716 115.54 76.1076 115.54 73.9066Z" fill="#4E4E4E"/>
<path d="M164.444 66.2656C165.845 66.2783 167.236 66.5001 168.572 66.9236C168.718 66.9236 168.755 67.0336 168.718 67.1786C168.508 68.0926 168.298 69.0056 168.097 69.9186C168.097 70.0646 168.024 70.1016 167.869 70.0466C166.841 69.6743 165.757 69.4796 164.664 69.4706C164.206 69.4469 163.749 69.5316 163.33 69.7176C163.133 69.8242 162.982 69.9996 162.907 70.2102C162.831 70.4209 162.835 70.652 162.919 70.8596C162.974 70.9974 163.062 71.1196 163.175 71.2156C163.711 71.5833 164.299 71.8694 164.919 72.0646C165.93 72.4042 166.894 72.8706 167.787 73.4526C168.267 73.7709 168.663 74.202 168.938 74.7082C169.213 75.2144 169.361 75.7804 169.367 76.3566C169.434 77.0894 169.327 77.8276 169.056 78.5116C168.668 79.3788 167.957 80.0604 167.074 80.4116C166.08 80.8217 165.017 81.0356 163.942 81.0416C162.851 81.0906 161.758 81.0202 160.682 80.8316C159.996 80.6901 159.321 80.4975 158.664 80.2556C158.545 80.2106 158.536 80.1656 158.554 80.0556C158.764 79.0776 158.965 78.1006 159.166 77.1236C159.166 76.9686 159.239 76.9506 159.385 77.0056C160.398 77.3985 161.457 77.6622 162.536 77.7906C163.182 77.8729 163.835 77.8729 164.481 77.7906C164.651 77.7921 164.818 77.7459 164.964 77.6571C165.109 77.5684 165.227 77.4407 165.303 77.2886C165.404 77.0822 165.424 76.8451 165.358 76.6248C165.292 76.4045 165.145 76.2173 164.947 76.1006C164.358 75.7228 163.726 75.4164 163.065 75.1876C162.209 74.8977 161.388 74.5119 160.618 74.0376C160.126 73.7249 159.716 73.2989 159.422 72.7953C159.128 72.2916 158.959 71.7249 158.929 71.1426C158.863 70.5293 158.916 69.9091 159.084 69.3156C159.259 68.7668 159.553 68.2631 159.944 67.8403C160.336 67.4174 160.815 67.0857 161.349 66.8686C162.113 66.532 162.935 66.346 163.769 66.3206L164.444 66.2656Z" fill="#5DB48E"/>
<path d="M77.23 72.6958V75.1528C77.237 75.6288 77.323 76.1008 77.485 76.5498C77.5858 76.8395 77.7693 77.0933 78.0128 77.2799C78.2563 77.4665 78.5491 77.5777 78.855 77.5998C79.848 77.7027 80.8514 77.5873 81.795 77.2618C81.969 77.2068 82.023 77.2068 82.06 77.4078C82.215 78.3208 82.38 79.2348 82.562 80.1478C82.562 80.2847 82.562 80.3308 82.434 80.3758C81.4212 80.7672 80.351 80.9895 79.266 81.0338C78.4127 81.0816 77.557 81.0044 76.726 80.8048C75.8954 80.6303 75.1373 80.2079 74.552 79.5933C73.9667 78.9787 73.5817 78.2009 73.448 77.3628C73.2865 76.6035 73.207 75.829 73.211 75.0528V63.3628C73.211 63.1898 73.257 63.1258 73.431 63.0978C74.6344 62.915 75.8365 62.7233 77.037 62.5228C77.211 62.5228 77.247 62.5228 77.247 62.6958V66.3488C77.247 66.6228 77.247 66.6228 77.531 66.6228H81.831C81.996 66.6228 82.041 66.6228 82.041 66.8328V69.7558C82.041 69.9288 81.987 69.9748 81.823 69.9748H77.485C77.293 69.9748 77.257 70.0298 77.257 70.2028C77.238 71.0338 77.229 71.8828 77.229 72.6958H77.23ZM89.887 66.2758C90.898 66.27 91.9032 66.4273 92.864 66.7418C93.12 66.8238 93.366 66.9238 93.613 67.0158C93.704 67.0158 93.723 67.0888 93.704 67.1888C93.442 68.1758 93.187 69.1618 92.937 70.1488C92.937 70.2758 92.855 70.2578 92.764 70.2208C92.0888 69.9681 91.3823 69.8083 90.664 69.7458C89.8083 69.6326 88.9391 69.8026 88.189 70.2298C87.57 70.6402 87.1193 71.2595 86.919 71.9748C86.5346 73.1617 86.5346 74.4398 86.919 75.6268C87.0807 76.1531 87.3972 76.6184 87.8273 76.9622C88.2573 77.3059 88.781 77.5121 89.33 77.5538C90.6213 77.7229 91.9343 77.5757 93.156 77.1248C93.321 77.0608 93.376 77.0788 93.403 77.2618C93.549 78.1748 93.713 79.0878 93.887 80.0468C93.887 80.2478 93.887 80.3568 93.677 80.4398C92.664 80.7898 91.606 80.9928 90.535 81.0428C89.4005 81.1321 88.2592 81.0176 87.165 80.7048C86.0536 80.4185 85.0486 79.8171 84.271 78.9729C83.4934 78.1288 82.9763 77.0779 82.782 75.9468C82.5194 74.7468 82.476 73.5092 82.654 72.2938C82.7807 71.3125 83.117 70.37 83.6402 69.5302C84.1633 68.6904 84.8611 67.973 85.686 67.4268C86.6986 66.7589 87.8716 66.3743 89.083 66.3128L89.887 66.2758ZM67.102 73.6458V66.8608C67.102 66.6688 67.156 66.6228 67.348 66.6228H70.91C71.074 66.6228 71.12 66.6228 71.12 66.8328V80.5308C71.12 80.6958 71.074 80.7408 70.91 80.7318H67.33C67.156 80.7318 67.11 80.6858 67.11 80.5128L67.102 73.6458ZM113.282 73.7098V80.5128C113.282 80.6858 113.282 80.7498 113.063 80.7498H109.502C109.31 80.7498 109.273 80.6958 109.273 80.5128V66.8788C109.273 66.7138 109.273 66.6498 109.483 66.6588H113.063C113.246 66.6588 113.273 66.7138 113.273 66.8788C113.279 69.1368 113.282 71.4148 113.282 73.7098ZM113.649 62.6048C113.662 62.9226 113.607 63.2395 113.49 63.5351C113.372 63.8306 113.194 64.0983 112.967 64.3208C112.74 64.5435 112.469 64.7164 112.172 64.8283C111.874 64.9402 111.556 64.9888 111.239 64.9708C110.924 64.982 110.609 64.9287 110.315 64.8143C110.021 64.6998 109.753 64.5265 109.528 64.305C109.304 64.0836 109.126 63.8185 109.007 63.5262C108.889 63.2338 108.831 62.9203 108.837 62.6048C108.827 62.2874 108.884 61.9715 109.002 61.6768C109.12 61.3822 109.299 61.1153 109.525 60.8928C109.751 60.6699 110.021 60.4961 110.318 60.3822C110.614 60.2683 110.931 60.2167 111.248 60.2308C111.565 60.2139 111.883 60.2636 112.18 60.3765C112.477 60.4895 112.747 60.6633 112.973 60.8868C113.2 61.1103 113.376 61.3786 113.493 61.6744C113.609 61.9703 113.662 62.2871 113.649 62.6048ZM66.674 62.5958C66.6619 62.2788 66.716 61.9628 66.8328 61.6679C66.9497 61.3731 67.1267 61.1058 67.3526 60.8831C67.5786 60.6605 67.8484 60.4874 68.145 60.3749C68.4415 60.2624 68.7583 60.213 69.075 60.2298C69.3927 60.2185 69.7093 60.2726 70.0053 60.3888C70.3012 60.5049 70.5701 60.6807 70.7953 60.905C71.0205 61.1294 71.1972 61.3976 71.3145 61.6931C71.4318 61.9886 71.4871 62.305 71.477 62.6228C71.4835 62.9422 71.4262 63.2598 71.3085 63.5569C71.1907 63.854 71.0149 64.1246 70.7912 64.3528C70.5676 64.5811 70.3006 64.7624 70.006 64.8862C69.7114 65.01 69.3951 65.0738 69.0755 65.0738C68.756 65.0738 68.4396 65.01 68.145 64.8862C67.8504 64.7624 67.5835 64.5811 67.3598 64.3528C67.1362 64.1246 66.9603 63.854 66.8426 63.5569C66.7248 63.2598 66.6675 62.9422 66.674 62.6228V62.5958Z" fill="#4E4E4E"/>
<path d="M38.3641 70.815C38.5642 70.7978 38.7657 70.8239 38.9549 70.8915C39.144 70.9592 39.3163 71.0668 39.4601 71.207C39.645 71.4554 39.7239 71.767 39.6795 72.0735C39.6351 72.38 39.471 72.6564 39.2231 72.842C38.725 73.1919 38.1534 73.4231 37.5521 73.518L37.0221 73.637C36.9221 73.637 36.8671 73.637 36.8391 73.537C36.6481 72.805 36.4561 72.084 36.2551 71.353C36.2551 71.29 36.2001 71.235 36.3191 71.198C36.9811 70.9814 37.6686 70.8526 38.3641 70.815ZM37.0621 67.509C37.3921 67.495 37.7171 67.602 37.9751 67.81C38.0885 67.9144 38.1768 68.0431 38.2334 68.1865C38.2901 68.3298 38.3135 68.4841 38.3021 68.6378C38.2906 68.7915 38.2446 68.9406 38.1673 69.074C38.0901 69.2074 37.9837 69.3216 37.8561 69.408C37.4488 69.6809 36.9884 69.8645 36.5051 69.947C35.9571 70.075 35.9481 70.075 35.8021 69.536L35.3911 67.984C35.3911 67.91 35.3911 67.864 35.4551 67.837C35.9728 67.6529 36.5137 67.5425 37.0621 67.509Z" fill="#5DB48E"/>
<path d="M421.286 16H239C215.252 16 196 35.252 196 59V81.477C196 105.225 215.252 124.477 239 124.477H421.286C445.034 124.477 464.286 105.225 464.286 81.477V59C464.286 35.252 445.034 16 421.286 16Z" fill="white"/>
<path d="M262.306 67.0059C262.698 66.6889 263.066 66.3849 263.441 66.0879C264.168 65.5121 264.987 65.0613 265.863 64.7539C267.689 64.1055 269.671 64.0367 271.539 64.5569C272.319 64.7689 273.078 65.1259 273.776 65.5359C274.891 66.1899 275.759 67.1459 276.563 68.1419C276.882 68.5379 277.156 68.9909 277.351 69.4599C277.761 70.4429 278.07 71.4599 278.167 72.5329C278.254 73.4899 278.214 74.4379 278.057 75.3729C277.897 76.3391 277.552 77.2652 277.04 78.0999C276.439 79.0779 275.729 79.9779 274.811 80.6859C274.072 81.2559 273.346 81.8509 272.408 82.0959C271.75 82.2689 271.109 82.5499 270.441 82.6359C268.441 82.9009 266.488 82.7659 264.631 81.8489C264.068 81.5709 263.522 81.2809 263.023 80.9129C262.518 80.5399 262.016 80.1419 261.58 79.6909C261.065 79.1541 260.677 78.5081 260.447 77.8009C260.242 77.1909 259.948 76.6039 259.783 75.9819C259.609 75.3079 259.477 74.6179 259.477 73.8999C259.491 68.7469 259.485 63.5949 259.485 58.4409C259.485 58.0939 259.525 58.0169 259.883 58.0069C260.567 57.9899 261.251 58.0069 261.935 58.0309C262.024 58.0349 262.16 58.1629 262.187 58.2579C262.258 58.5059 262.315 58.7679 262.315 59.0239C262.315 61.6499 262.298 64.2769 262.288 66.9039C262.288 66.9289 262.296 66.9529 262.306 67.0059ZM268.524 80.0889C272.221 80.2989 275.226 77.2229 275.38 73.8789C275.558 70.0319 272.487 66.8939 269.146 66.7919C265.262 66.6719 262.118 69.4149 262.116 73.4419C262.114 77.0479 264.866 80.0279 268.524 80.0919V80.0889ZM338.408 73.9399C338.445 74.2669 338.467 74.5729 338.514 74.8779C338.717 76.2159 339.259 77.3849 340.254 78.3269C340.457 78.5169 340.641 78.7289 340.848 78.9139C340.978 79.0289 341.137 79.1109 341.279 79.2099C341.435 79.3219 341.575 79.4639 341.746 79.5449C342.459 79.8876 343.23 80.0954 344.019 80.1579C345.03 80.2537 346.05 80.1327 347.012 79.8029C348.349 79.3459 349.446 78.5429 350.308 77.4319C350.524 77.1559 350.698 76.8449 350.873 76.5389C351.129 76.0919 351.492 76.0249 351.874 76.3719C351.892 76.3879 351.908 76.4149 351.93 76.4209C352.412 76.5469 352.771 76.9009 353.224 77.0869C353.524 77.2099 353.548 77.5189 353.331 77.7669C353.224 77.8845 353.133 78.0148 353.059 78.1549C352.737 78.7987 352.313 79.3865 351.805 79.8959C351.33 80.3659 350.848 80.8179 350.308 81.2159C349.793 81.5929 349.222 81.8459 348.632 82.0829C347.984 82.3439 347.314 82.5049 346.634 82.6229C345.384 82.8379 344.127 82.8109 342.874 82.6059C342.148 82.4947 341.442 82.2802 340.777 81.9689C339.539 81.3719 338.41 80.6449 337.631 79.4759C337.318 79.0089 336.995 78.5479 336.689 78.0769C336.179 77.2959 335.952 76.4069 335.741 75.5149C335.481 74.4209 335.483 73.3109 335.615 72.2019C335.708 71.4169 335.875 70.6419 336.228 69.9219C336.512 69.3419 336.744 68.7209 337.121 68.2069C337.956 67.0729 338.9 66.0409 340.183 65.3589C341.6 64.6039 343.094 64.2489 344.693 64.2289C345.631 64.2159 346.559 64.2789 347.452 64.5469C348.554 64.8759 349.586 65.3649 350.505 66.0799C350.946 66.4229 351.411 66.7299 351.746 67.1819C352.089 67.6469 352.468 68.0959 352.74 68.6019C353.09 69.2509 353.396 69.9309 353.628 70.6289C353.936 71.5569 354.064 72.5269 354.078 73.5089C354.082 73.7739 353.958 73.8989 353.713 73.9319C353.613 73.9439 353.51 73.9419 353.408 73.9419H338.408V73.9399ZM350.976 71.4959C350.069 68.2599 347.33 66.6079 343.991 66.9349C341.317 67.1959 339.545 68.8159 338.784 71.4959H350.976ZM306.029 73.9399C306.143 75.1079 306.324 76.2139 306.992 77.1739C307.256 77.5539 307.497 77.9559 307.806 78.2969C308.776 79.3709 310.01 79.9549 311.442 80.1499C312.339 80.2719 313.238 80.2759 314.107 80.0219C315.705 79.5569 317.063 78.7269 318.017 77.3239C318.266 76.9569 318.541 76.6059 318.802 76.2459C318.898 76.1149 318.999 76.0979 319.148 76.1739C319.69 76.4489 320.238 76.7089 320.78 76.9809C321.104 77.1439 321.192 77.3709 321.027 77.6799C320.124 79.3789 318.916 80.7779 317.168 81.6899C315.288 82.6699 313.297 82.9029 311.226 82.6959C310.276 82.6039 309.345 82.3756 308.461 82.0179C307.213 81.5099 306.237 80.6499 305.382 79.6349C304.672 78.7859 304.117 77.8197 303.74 76.7799C302.93 74.5879 302.924 72.3729 303.756 70.1949C304.237 68.9349 304.931 67.7889 305.936 66.8309C306.596 66.2019 307.282 65.6089 308.088 65.2089C308.764 64.8739 309.478 64.5939 310.246 64.4499C311.429 64.2269 312.615 64.1449 313.8 64.2959C314.462 64.3789 315.11 64.6039 315.753 64.7929C316.115 64.8989 316.478 65.0309 316.807 65.2089C318.382 66.0659 319.677 67.2189 320.526 68.8169C321.188 70.0649 321.588 71.3909 321.667 72.8059C321.679 73.0249 321.701 73.2419 321.715 73.4609C321.738 73.8129 321.624 73.9359 321.263 73.9359H306.027L306.029 73.9399ZM318.593 71.4939C317.718 68.2639 314.817 66.5779 311.59 66.9309C308.64 67.2559 306.831 69.5449 306.429 71.4939H318.593ZM373.575 73.9399C373.579 74.7339 373.742 75.4669 374.026 76.1599C374.424 77.1349 374.964 78.0279 375.778 78.7249C376.754 79.5629 377.867 80.0729 379.176 80.1619C380.002 80.223 380.833 80.1705 381.645 80.0059C381.833 79.9669 382.016 79.8959 382.197 79.8309C382.44 79.7409 382.688 79.6559 382.921 79.5429C383.139 79.4369 383.336 79.2889 383.549 79.1729C384.399 78.7099 385.053 78.0409 385.607 77.2609C385.812 76.9729 386.001 76.6769 386.202 76.3839C386.387 76.1179 386.626 76.0979 386.906 76.2719C387.142 76.4189 387.414 76.5059 387.651 76.6479C387.966 76.8369 388.266 77.0499 388.563 77.2679C388.606 77.2999 388.622 77.4319 388.593 77.4859C388.455 77.7519 388.297 78.0079 388.145 78.2679C388.086 78.3699 388.009 78.4629 387.966 78.5699C387.816 78.9559 387.572 79.2689 387.27 79.5469C387.022 79.7769 386.811 80.0419 386.571 80.2769C385.402 81.4349 384.012 82.1529 382.392 82.5029C380.989 82.8049 379.6 82.8419 378.189 82.6329C376.957 82.4499 375.82 81.9969 374.773 81.3599C374.056 80.9209 373.451 80.3259 372.909 79.6669C372.186 78.7869 371.613 77.7935 371.214 76.7269C370.752 75.5018 370.578 74.1868 370.707 72.8839C370.774 72.1919 370.871 71.4959 371.046 70.8259C371.273 69.9449 371.685 69.1329 372.205 68.3799C372.367 68.1439 372.53 67.9099 372.696 67.6809C373.084 67.1459 373.563 66.7029 374.064 66.2709C374.714 65.7084 375.448 65.2518 376.241 64.9179C377.308 64.4699 378.433 64.2669 379.59 64.2359C380.583 64.2079 381.567 64.2769 382.53 64.5329C382.789 64.6019 383.053 64.6729 383.295 64.7839C383.922 65.0729 384.578 65.3269 385.152 65.7019C385.942 66.2159 386.671 66.8189 387.245 67.5879C387.838 68.3839 388.325 69.2319 388.642 70.1719C389.014 71.2709 389.223 72.3969 389.2 73.5599C389.194 73.8599 389.093 73.9439 388.742 73.9439H373.573L373.575 73.9399ZM386.102 71.4959C385.981 71.1239 385.893 70.7549 385.741 70.4139C385.213 69.2166 384.287 68.2394 383.12 67.6489C381.612 66.8689 380.002 66.7029 378.342 67.0499C378.12 67.0969 377.909 67.1879 377.696 67.2649C377.465 67.3489 377.229 67.4299 377.006 67.5349C376.856 67.6059 376.734 67.7349 376.588 67.8129C375.766 68.2559 375.171 68.9359 374.698 69.7049C374.359 70.2569 374.127 70.8729 373.829 71.4979H386.102V71.4959ZM284.434 73.9409C284.478 74.3109 284.495 74.6559 284.566 74.9889C284.885 76.4889 285.575 77.7899 286.746 78.7989C287.353 79.3229 288.059 79.6839 288.845 79.9189C290.069 80.292 291.372 80.3197 292.611 79.9989C293.926 79.6659 295.022 78.9429 295.93 77.9649C296.385 77.4769 296.732 76.8889 297.111 76.3349C297.227 76.1639 297.349 76.1009 297.53 76.1899C297.921 76.3809 298.309 76.5779 298.699 76.7729C298.928 76.8889 299.152 77.0189 299.389 77.1139C299.545 77.1769 299.596 77.2559 299.521 77.3959C299.279 77.8359 299.042 78.2769 298.784 78.7079C298.622 78.9724 298.446 79.2278 298.256 79.4729C297.375 80.6439 296.194 81.4199 294.878 82.0209C294.198 82.3309 293.478 82.4979 292.743 82.6209C291.372 82.8551 289.97 82.8246 288.612 82.5309C287.339 82.2579 286.163 81.7709 285.126 80.9489C283.855 79.9419 282.956 78.6709 282.329 77.2069C282.067 76.5969 281.939 75.9269 281.76 75.2809C281.523 74.4219 281.588 73.5389 281.62 72.6679C281.643 71.8505 281.822 71.045 282.148 70.2949C282.384 69.7649 282.597 69.2249 282.873 68.7179C283.074 68.3459 283.358 68.0189 283.61 67.6759C283.758 67.4709 283.884 67.2419 284.066 67.0729C285.01 66.2049 285.964 65.3479 287.197 64.8829C288.286 64.4682 289.439 64.2468 290.605 64.2289C291.472 64.2169 292.339 64.2459 293.173 64.4589C293.912 64.6433 294.627 64.9187 295.299 65.2789C296.07 65.6969 296.787 66.1689 297.408 66.7849C298.604 67.9604 299.444 69.4504 299.83 71.0829C300.035 71.9309 300.114 72.7899 300.089 73.6609C300.085 73.8089 300.033 73.8809 299.89 73.8939C299.722 73.9109 299.556 73.9439 299.387 73.9439H284.434V73.9409ZM297.022 71.4969C297.026 71.4649 297.032 71.4469 297.028 71.4319C296.622 69.7749 295.583 68.5919 294.16 67.7289C292.986 67.0189 291.689 66.7689 290.319 66.8929C289.58 66.9599 288.89 67.1909 288.193 67.4289C287.526 67.6559 286.982 68.0719 286.506 68.5449C285.68 69.3649 285.118 70.3659 284.771 71.4969H297.022ZM327.291 69.1129V69.4399C327.291 71.3259 327.273 73.2119 327.299 75.0979C327.311 75.9949 327.291 76.9019 327.539 77.7789C327.673 78.2499 327.857 78.7009 328.2 79.0689C328.422 79.3059 328.619 79.5679 328.856 79.7849C329.258 80.1489 329.749 80.2759 330.287 80.2479C330.821 80.2189 331.341 80.1609 331.832 79.9079C332.183 79.7279 332.366 79.8659 332.49 80.2399C332.65 80.7169 332.845 81.1839 333.06 81.6379C333.172 81.8719 333.117 82.0299 332.92 82.1159C332.551 82.2802 332.171 82.4166 331.783 82.5239C330.565 82.8379 329.347 82.8829 328.146 82.4399C327.277 82.1219 326.542 81.6239 326.012 80.8499C325.931 80.7329 325.84 80.6239 325.752 80.5099C324.986 79.5134 324.562 78.2964 324.544 77.0399C324.495 74.6422 324.469 72.2441 324.465 69.8459C324.451 66.2929 324.457 62.7409 324.455 59.1879C324.455 58.4029 324.479 58.3779 325.265 58.3779H326.761C327.179 58.3779 327.287 58.4859 327.287 58.9019V66.3519C327.283 66.5739 327.391 66.6689 327.614 66.6669C328.113 66.6609 328.611 66.6669 329.11 66.6669C329.794 66.6669 330.48 66.6749 331.164 66.6629C331.377 66.6589 331.451 66.7429 331.451 66.9409C331.451 67.5719 331.463 68.2039 331.455 68.8349C331.455 68.8959 331.351 69.0049 331.288 69.0119C330.935 69.0461 330.58 69.0651 330.226 69.0689C329.297 69.0829 328.367 69.0869 327.437 69.0969C327.397 69.0969 327.356 69.1089 327.285 69.1189L327.291 69.1129ZM360.367 82.7249C359.547 82.7249 358.745 82.7269 357.946 82.7249C357.688 82.7249 357.619 82.5809 357.619 82.3309C357.627 79.0139 357.631 75.6969 357.619 72.3809C357.605 68.0969 357.572 63.8109 357.55 59.5279C357.55 59.2929 357.56 59.0579 357.578 58.8219C357.596 58.5779 357.737 58.4259 357.984 58.4219C358.668 58.4131 359.352 58.4144 360.037 58.4259C360.262 58.4299 360.384 58.5389 360.384 58.8089C360.376 66.6989 360.378 74.5849 360.378 82.4739C360.378 82.5539 360.372 82.6389 360.367 82.7249ZM367.192 70.5789V81.9959C367.192 82.7449 367.186 82.7449 366.453 82.7429C365.903 82.7429 365.352 82.7429 364.804 82.7349C364.484 82.7289 364.406 82.6489 364.384 82.3269C364.372 82.1419 364.372 81.9569 364.372 81.7699C364.372 74.3179 364.368 66.8679 364.372 59.4159C364.372 59.1559 364.406 58.8959 364.421 58.6359C364.429 58.5019 364.492 58.4429 364.628 58.4409C365.363 58.4349 366.097 58.4169 366.83 58.4229C367.11 58.4249 367.19 58.5409 367.19 58.8269V70.5729H367.192V70.5789ZM392.243 77.4949C392.243 76.0289 392.257 74.5649 392.239 73.0999C392.226 72.0929 392.517 71.1609 392.866 70.2369C392.99 69.9069 393.105 69.5689 393.276 69.2629C393.572 68.7269 393.879 68.1929 394.234 67.6979C394.698 67.0535 395.26 66.4862 395.901 66.0169C396.794 65.3569 397.762 64.8459 398.863 64.6589C399.746 64.5089 400.58 64.7589 401.366 65.1719C401.591 65.2919 401.646 65.4479 401.512 65.6639C401.22 66.1339 400.895 66.5889 400.639 67.0809C400.428 67.4849 400.192 67.6469 399.734 67.4779C399.299 67.3199 398.865 67.4879 398.453 67.6209C398.223 67.6939 398.006 67.8459 397.823 68.0059C396.729 68.9659 395.791 70.0629 395.446 71.5019C395.243 72.3519 395.184 73.2499 395.166 74.1269C395.111 76.8449 395.107 79.5629 395.083 82.2809C395.079 82.6649 395.004 82.7459 394.624 82.7479C393.94 82.7479 393.254 82.7379 392.57 82.7399C392.328 82.7399 392.239 82.6549 392.241 82.3969C392.253 80.7649 392.247 79.1309 392.247 77.4989L392.243 77.4949Z" fill="#101010"/>
<path d="M648.286 16H466C442.252 16 423 35.252 423 59V81.477C423 105.225 442.252 124.477 466 124.477H648.286C672.034 124.477 691.286 105.225 691.286 81.477V59C691.286 35.252 672.034 16 648.286 16Z" fill="white"/>
<path d="M598.809 55C599.086 55.08 599.367 55.147 599.638 55.244C601.307 55.847 602.246 57.507 601.944 59.307C601.658 61.003 600.175 62.238 598.408 62.252C597.565 62.2614 596.746 61.9755 596.093 61.4439C595.439 60.9123 594.993 60.1686 594.831 59.342C594.645 58.4046 594.838 57.4318 595.368 56.6363C595.897 55.8408 596.72 55.2874 597.657 55.097C597.753 55.077 597.844 55.033 597.937 55.001L598.809 55Z" fill="#F90040"/>
<path d="M511 64.8364H517.366V66.3644C517.366 66.3644 516.983 67.2884 516.782 67.7674C517.24 67.3824 517.667 66.9824 518.133 66.6374C520.067 65.2044 522.183 64.2594 524.65 64.3234C525.718 64.3514 526.761 64.5284 527.734 64.9934C529.814 65.9864 530.721 67.7404 530.873 69.9434C530.938 70.8834 530.909 71.8274 530.91 72.7704C530.913 76.5704 530.911 80.3704 530.911 84.1704V84.7514H524.546V84.2344C524.546 80.6804 524.55 77.1264 524.542 73.5734C524.541 73.1254 524.528 72.6714 524.445 72.2334C524.191 70.8814 523.351 70.1264 521.995 69.9734C520.291 69.7804 518.848 70.2964 517.663 71.5404C517.561 71.6407 517.481 71.7612 517.429 71.8941C517.376 72.0271 517.352 72.1695 517.358 72.3124C517.368 76.2724 517.365 80.2324 517.365 84.1914V84.7704H511V64.8364ZM593.823 74.0304C593.624 71.6504 592.865 69.4664 591.272 67.6394C589.16 65.2174 586.422 64.2214 583.268 64.3334C579.921 64.4514 577.129 65.7584 575.091 68.4654C573.457 70.6374 572.857 73.1214 573.091 75.8054C573.415 79.5204 575.122 82.4084 578.524 84.0394C582.611 85.9984 586.724 85.6214 590.746 83.7154C591.309 83.4484 591.804 83.0384 592.352 82.6814L589.647 78.6954C587.823 80.0774 585.567 80.6584 583.437 80.2414C581.535 79.8704 580.192 78.8194 579.675 76.8814C579.621 76.6764 579.625 76.4564 579.602 76.2434L579.704 76.1834C579.939 76.8504 580.464 76.8044 580.997 76.8034C585.094 76.7954 589.191 76.7984 593.288 76.7984H593.834C593.834 75.8214 593.896 74.9204 593.821 74.0294L593.823 74.0304ZM579.617 72.6554C579.732 70.7284 581.513 69.2354 583.676 69.2304C585.953 69.2244 587.662 70.6374 587.797 72.6554H579.617ZM552.099 64.8534H545.769V65.4424C545.769 69.3884 545.774 73.3344 545.757 77.2804C545.756 77.5404 545.638 77.8534 545.467 78.0464C544.298 79.3714 542.803 79.8504 541.072 79.6134C539.905 79.4534 539.053 78.8734 538.777 77.6734C538.676 77.1918 538.628 76.7005 538.635 76.2084C538.624 72.5964 538.629 68.9844 538.629 65.3714V64.8474H532.301C532.288 64.9234 532.271 64.9774 532.271 65.0334C532.274 69.9364 532.221 74.8404 532.311 79.7434C532.353 82.0424 533.425 83.8674 535.679 84.7204C536.557 85.0524 537.538 85.2274 538.479 85.2604C541.375 85.3604 543.811 84.2034 545.934 82.3054L546.258 82.0134L545.793 83.2204L545.824 84.7624H552.1L552.099 64.8534ZM558.985 65.2104C558.881 64.9164 558.754 64.8104 558.437 64.8144C556.911 64.8324 555.386 64.8214 553.86 64.8234C553.72 64.8234 553.582 64.8404 553.406 64.8524C553.406 65.7864 553.394 66.6834 553.413 67.5794C553.419 67.8614 553.467 68.1594 553.57 68.4214C555.658 73.7484 557.758 79.0714 559.845 84.3974C559.958 84.6864 560.097 84.7874 560.411 84.7874C562.387 84.7712 564.363 84.7712 566.339 84.7874C566.683 84.7914 566.842 84.6924 566.97 84.3674C569.251 78.5404 571.546 72.7194 573.837 66.8974C574.102 66.2264 574.362 65.5534 574.634 64.8554C574.517 64.8404 574.448 64.8254 574.379 64.8244C572.331 64.8224 570.281 64.8304 568.233 64.8144C567.915 64.8124 567.854 64.9884 567.772 65.2144C566.582 68.5114 563.578 76.8024 563.578 76.8024L563.713 78.3874C563.713 78.3874 560.477 69.4144 558.985 65.2104ZM601.55 64.8504H595.259V84.7624H601.55V64.8504Z" fill="#00202D"/>
<path d="M875.286 16H693C669.252 16 650 35.252 650 59V81.477C650 105.225 669.252 124.477 693 124.477H875.286C899.034 124.477 918.286 105.225 918.286 81.477V59C918.286 35.252 899.034 16 875.286 16Z" fill="white"/>
<path d="M742.957 75.175C742.957 77.343 742.275 79.029 740.911 80.234C739.547 81.438 737.662 82 735.215 82C734.241 82.0038 733.27 81.8824 732.327 81.639C731.496 81.43 730.708 81.0767 730 80.595V75.496C730.762 76.018 731.645 76.42 732.688 76.781C733.691 77.142 734.613 77.303 735.416 77.303C736.098 77.303 736.619 77.143 736.98 76.861C737.341 76.581 737.502 76.139 737.502 75.577C737.502 75.336 737.461 75.055 737.341 74.854C737.218 74.6022 737.056 74.3717 736.86 74.171C736.659 73.931 736.098 73.449 735.215 72.646C734.132 71.723 733.33 70.799 732.848 69.836C732.365 68.8632 732.117 67.7902 732.126 66.704C732.126 65.42 732.407 64.296 733.049 63.252C733.656 62.2296 734.548 61.4064 735.616 60.883C736.699 60.321 737.903 60.04 739.307 60.04C741.513 60.04 743.479 60.602 745.244 61.646L743.358 65.982C741.794 65.098 740.43 64.697 739.307 64.697C738.705 64.697 738.264 64.817 737.943 65.098C737.622 65.379 737.461 65.781 737.461 66.303C737.461 66.785 737.622 67.226 737.943 67.628C738.264 68.029 738.825 68.591 739.708 69.274C740.791 70.117 741.593 71 742.115 71.964C742.636 72.887 742.917 73.971 742.917 75.175H742.957ZM752.5 81.719H747.084L750.374 65.098H745.961L746.924 60.401H761.165L760.202 65.098H755.789L752.5 81.719ZM758.758 81.72L763.05 60.361H768.546L764.254 81.719L758.758 81.72ZM779.501 64.777C778.498 64.777 777.575 65.139 776.773 65.901C775.971 66.664 775.329 67.708 774.888 69.033C774.428 70.432 774.197 71.8963 774.206 73.369C774.206 74.694 774.446 75.657 774.968 76.299C775.489 76.942 776.211 77.263 777.214 77.263C777.977 77.263 778.779 77.183 779.541 76.982C780.343 76.782 781.266 76.42 782.309 75.938V80.675C780.424 81.559 778.378 81.96 776.211 81.96C773.805 81.96 771.959 81.237 770.676 79.832C769.392 78.387 768.75 76.34 768.75 73.69C768.75 71.04 769.231 68.712 770.154 66.544C771.077 64.376 772.36 62.77 773.965 61.646C775.57 60.562 777.415 60 779.501 60C781.948 60 784.154 60.642 786.16 61.927L784.114 66.383C783.363 65.9108 782.571 65.5078 781.747 65.179C781.025 64.898 780.303 64.777 779.501 64.777ZM801.365 66.745C801.365 69.193 800.563 71.121 798.998 72.525C797.394 73.931 795.227 74.613 792.5 74.613H791.296L789.892 81.719H784.477L788.769 60.361H793.944C796.351 60.361 798.196 60.923 799.44 62.007C800.763 63.091 801.365 64.697 801.365 66.745ZM792.259 69.956H793.141C793.984 69.956 794.666 69.676 795.187 69.113C795.709 68.551 795.95 67.829 795.95 66.945C795.95 66.383 795.789 65.902 795.468 65.54C795.147 65.179 794.706 65.018 794.104 65.018H793.262L792.259 69.956ZM812.481 77.704H806.263L804.538 81.719H798.922L809.232 60.361H816.212L817.896 81.719H812.641L812.521 77.705L812.481 77.704ZM808.229 73.168H812.28L812.04 66.985V63.814C811.799 64.657 811.558 65.46 811.197 66.223L808.189 73.168H808.229ZM827.756 68.27L832.089 60.361H838.146L829.682 73.409L827.997 81.719H822.581L824.266 73.449L820.977 60.402H826.553L827.796 68.31L827.756 68.27Z" fill="#F25822"/>
<path d="M1102.29 16H920C896.252 16 877 35.252 877 59V81.477C877 105.225 896.252 124.477 920 124.477H1102.29C1126.03 124.477 1145.29 105.225 1145.29 81.477V59C1145.29 35.252 1126.03 16 1102.29 16Z" fill="white"/>
<path d="M965.92 54C962.771 54 959.693 54.9337 957.075 56.6829C954.458 58.4321 952.417 60.9184 951.212 63.8272C950.007 66.7361 949.692 69.9369 950.306 73.025C950.921 76.113 952.437 78.9495 954.663 81.1759C956.889 83.4022 959.726 84.9184 962.814 85.5326C965.902 86.1469 969.103 85.8316 972.012 84.6267C974.921 83.4218 977.407 81.3814 979.156 78.7635C980.905 76.1456 981.839 73.0678 981.839 69.9193C981.839 65.6972 980.162 61.6481 977.176 58.6627C974.191 55.6772 970.142 54 965.92 54Z" fill="#3E5C97"/>
<path d="M973.486 73.1072L972.623 76.4581H959.468L960.499 72.4672H959.806L959.273 72.6716L960.002 69.8273L961.308 69.3385L963.379 61.25H968.926L967.441 67.0275L968.819 66.5119L968.081 69.3829L966.704 69.8984L965.877 73.1072H973.486Z" fill="white"/>
<path d="M985.117 57.8984H988.068V82.3505H985.117V57.8984Z" fill="#3E5C97"/>
<path d="M991.31 63.9696C990.841 63.9534 990.396 63.7516 990.075 63.4084C989.753 63.0652 989.581 62.6086 989.595 62.1386C989.595 61.6671 989.782 61.2149 990.116 60.8815C990.449 60.5482 990.901 60.3609 991.373 60.3609C991.609 60.3508 991.845 60.3899 992.065 60.4757C992.285 60.5615 992.485 60.6921 992.652 60.8592C992.819 61.0263 992.95 61.2263 993.036 61.4465C993.121 61.6668 993.16 61.9024 993.15 62.1386C993.158 62.3765 993.117 62.6134 993.031 62.8353C992.945 63.0571 992.815 63.2594 992.649 63.4302C992.483 63.601 992.285 63.7367 992.066 63.8294C991.846 63.922 991.611 63.9697 991.373 63.9696H991.31ZM989.995 82.3509V66.8228H992.75V82.3509H989.995Z" fill="#3E5C97"/>
<path d="M1054.69 63.9696C1054.46 63.9627 1054.23 63.9098 1054.02 63.8141C1053.8 63.7183 1053.61 63.5815 1053.45 63.4114C1053.29 63.2414 1053.17 63.0414 1053.08 62.823C1053 62.6046 1052.96 62.372 1052.97 62.1386C1052.97 61.6671 1053.16 61.2149 1053.49 60.8815C1053.82 60.5482 1054.27 60.3609 1054.75 60.3609C1054.98 60.3508 1055.22 60.3899 1055.44 60.4757C1055.66 60.5615 1055.86 60.6921 1056.03 60.8592C1056.19 61.0263 1056.32 61.2263 1056.41 61.4465C1056.49 61.6668 1056.53 61.9024 1056.52 62.1386C1056.53 62.3765 1056.49 62.6134 1056.4 62.8353C1056.32 63.0571 1056.19 63.2594 1056.02 63.4302C1055.86 63.601 1055.66 63.7367 1055.44 63.8294C1055.22 63.922 1054.98 63.9697 1054.75 63.9696H1054.69ZM1053.38 82.3509V66.8228H1056.13V82.3509H1053.38Z" fill="#3E5C97"/>
<path d="M994.773 61.6875H997.662V65.6784H1004.54V67.9894H997.662V76.9757C997.662 79.0467 998.23 80.2111 999.875 80.2111C1001.33 80.2254 1002.78 79.963 1004.13 79.4378L1004.92 81.7221C1003.08 82.4837 1001.09 82.8239 999.102 82.7176C998.509 82.7452 997.918 82.6452 997.367 82.4244C996.816 82.2035 996.32 81.8671 995.911 81.4377C995.102 80.5488 994.773 79.0289 994.773 77.0645V61.6875Z" fill="#3E5C97"/>
<path d="M1007.46 74.5363C1007.53 78.6339 1010.3 80.3227 1013.56 80.3227C1015.25 80.3668 1016.93 80.0862 1018.52 79.4961L1019.11 81.6293C1017.2 82.3788 1015.16 82.7413 1013.1 82.6959C1007.63 82.6959 1004.3 79.2827 1004.3 74.2874C1004.3 69.2921 1007.52 65.2656 1012.74 65.2656C1018.58 65.2656 1020.1 70.0565 1020.1 73.123C1020.11 73.6087 1020.07 74.0944 1019.98 74.5719L1007.46 74.5363ZM1016.97 72.3586C1016.97 70.4654 1016.08 67.4344 1012.53 67.4344C1009.2 67.4344 1007.79 70.2609 1007.53 72.3586H1016.97Z" fill="#3E5C97"/>
<path d="M1034.79 81.7682C1033.22 82.4219 1031.53 82.7514 1029.82 82.737C1024.6 82.737 1021.21 79.3238 1021.21 74.1952C1021.21 69.0665 1024.85 65.3067 1030.51 65.3067C1032.01 65.2769 1033.5 65.5804 1034.87 66.1956L1034.15 68.5066C1033.02 67.9549 1031.77 67.6836 1030.51 67.7155C1026.53 67.7155 1024.39 70.5776 1024.39 74.053C1024.39 77.9106 1026.97 80.2749 1030.4 80.2749C1031.73 80.2925 1033.04 80.0226 1034.26 79.4838L1034.79 81.7682Z" fill="#3E5C97"/>
<path d="M1043.18 82.7315C1038.81 82.7315 1035.39 79.425 1035.39 74.1541C1035.39 68.5721 1038.94 65.2656 1043.45 65.2656C1048.12 65.2656 1051.27 68.741 1051.27 73.8074C1051.27 80.0294 1047.08 82.6959 1043.22 82.6959L1043.18 82.7315ZM1043.28 80.456C1046.1 80.456 1048.22 77.7361 1048.22 73.9497C1048.22 71.1231 1046.84 67.5766 1043.34 67.5766C1039.85 67.5766 1038.38 70.8831 1038.38 74.0474C1038.38 77.7006 1040.39 80.456 1043.25 80.456H1043.28Z" fill="#3E5C97"/>
<path d="M1061.47 68.0972V82.3188H1058.51V66.5329C1059.8 65.1907 1064.83 65.644 1064.83 65.644C1067.08 65.644 1072.34 66.9951 1072.34 72.5859V82.3632H1069.74V72.9415C1069.79 72.2932 1069.69 71.6428 1069.47 71.0323C1069.25 70.4218 1068.9 69.8649 1068.45 69.398C1068 68.931 1067.45 68.5644 1066.85 68.3219C1066.25 68.0794 1065.6 67.9665 1064.95 67.9906C1063.79 67.9227 1062.62 67.9584 1061.47 68.0972Z" fill="#3E5C97"/>
<path d="M1329.29 16H1147C1123.25 16 1104 35.252 1104 59V81.477C1104 105.225 1123.25 124.477 1147 124.477H1329.29C1353.03 124.477 1372.29 105.225 1372.29 81.477V59C1372.29 35.252 1353.03 16 1329.29 16Z" fill="white"/>
<path d="M1226.45 75.4036V68.7622C1226.5 68.1962 1226.42 67.627 1226.23 67.0932C1226.03 66.5594 1225.73 66.0733 1225.33 65.6678C1224.93 65.2622 1224.45 64.9467 1223.92 64.7426C1223.39 64.5384 1222.83 64.4503 1222.26 64.4843C1221.52 64.4343 1220.79 64.5837 1220.13 64.9168C1219.47 65.2499 1218.91 65.7544 1218.52 66.3772C1218.16 65.7732 1217.64 65.2782 1217.02 64.9449C1216.4 64.6116 1215.7 64.4524 1215 64.4843C1214.39 64.4576 1213.78 64.5894 1213.23 64.8667C1212.69 65.144 1212.22 65.5575 1211.89 66.0671V64.773H1209.57V75.4036H1211.91V69.5322C1211.86 69.1681 1211.89 68.7976 1212 68.4472C1212.11 68.0968 1212.3 67.7752 1212.55 67.5053C1212.8 67.2355 1213.1 67.0242 1213.44 66.8865C1213.78 66.7488 1214.15 66.6881 1214.52 66.7088C1216.1 66.7088 1216.84 67.7141 1216.84 69.5215V75.4036H1219.17V69.5429C1219.12 69.1791 1219.16 68.8094 1219.27 68.4599C1219.38 68.1103 1219.56 67.7895 1219.81 67.5202C1220.06 67.2508 1220.37 67.0394 1220.71 66.9011C1221.05 66.7627 1221.41 66.7007 1221.78 66.7195C1223.32 66.7195 1224.12 67.7248 1224.12 69.5322V75.4571H1226.45V75.4036ZM1261.09 64.7088H1257.31V61.5004H1254.96V64.7088H1252.83V66.8478H1254.96V71.7032C1254.96 74.1844 1255.93 75.6496 1258.65 75.6496C1259.68 75.6487 1260.68 75.3636 1261.55 74.8261L1260.89 72.8369C1260.27 73.2071 1259.56 73.4132 1258.84 73.4358C1257.68 73.4358 1257.3 72.7299 1257.3 71.6604V66.8478H1261.08L1261.09 64.7088ZM1280.86 64.4415C1280.29 64.4311 1279.73 64.57 1279.24 64.8442C1278.75 65.1184 1278.33 65.5181 1278.04 66.0029V64.7837H1275.76V75.4036H1278.08V69.468C1278.08 67.6927 1278.84 66.7195 1280.35 66.7195C1280.85 66.7107 1281.35 66.8016 1281.81 66.9868L1282.51 64.8479C1281.99 64.6417 1281.42 64.5295 1280.86 64.5163V64.4415ZM1250.98 65.5109C1249.66 64.7456 1248.15 64.3744 1246.63 64.4415C1243.94 64.4415 1242.18 65.7355 1242.18 67.8531C1242.18 69.5963 1243.48 70.6658 1245.86 70.9974L1246.93 71.1578C1248.21 71.3289 1248.8 71.6711 1248.8 72.2273C1248.8 73.0507 1247.96 73.5213 1246.38 73.5213C1245.1 73.5738 1243.85 73.1971 1242.82 72.4518L1241.75 74.2486C1243.1 75.1876 1244.71 75.671 1246.36 75.6282C1249.44 75.6282 1251.22 74.1737 1251.22 72.1524C1251.22 70.1311 1249.81 69.2969 1247.5 68.944L1246.43 68.7835C1245.43 68.6552 1244.62 68.452 1244.62 67.7141C1244.62 66.9761 1245.38 66.4735 1246.66 66.4735C1247.82 66.4928 1248.96 66.8054 1249.97 67.3825L1250.98 65.5109ZM1313.01 64.4415C1312.44 64.4311 1311.88 64.57 1311.39 64.8442C1310.9 65.1184 1310.48 65.5181 1310.19 66.0029V64.7837H1307.9V75.4036H1310.22V69.468C1310.22 67.6927 1310.98 66.7195 1312.5 66.7195C1313 66.7107 1313.49 66.8016 1313.96 66.9868L1314.66 64.8479C1314.15 64.6455 1313.6 64.5334 1313.05 64.5163L1313.01 64.4415ZM1283.16 70.0348C1283.12 70.7863 1283.24 71.5369 1283.52 72.2376C1283.79 72.9383 1284.21 73.5733 1284.75 74.1012C1285.28 74.6291 1285.92 75.038 1286.63 75.3011C1287.33 75.5642 1288.08 75.6757 1288.84 75.6282C1290.23 75.6951 1291.59 75.2413 1292.66 74.3555L1291.59 72.4839C1290.79 73.0904 1289.82 73.4274 1288.81 73.4465C1288.37 73.4473 1287.94 73.3581 1287.54 73.1843C1287.13 73.0105 1286.77 72.7559 1286.47 72.4361C1286.17 72.1163 1285.94 71.7382 1285.79 71.3251C1285.64 70.9121 1285.58 70.4729 1285.61 70.0348C1285.58 69.5967 1285.64 69.1576 1285.79 68.7445C1285.94 68.3315 1286.17 67.9534 1286.47 67.6336C1286.77 67.3138 1287.13 67.0591 1287.54 66.8853C1287.94 66.7115 1288.37 66.6223 1288.81 66.6232C1289.82 66.6355 1290.8 66.9732 1291.59 67.5857L1292.66 65.7141C1291.59 64.8265 1290.23 64.3725 1288.84 64.4415C1288.08 64.394 1287.33 64.5054 1286.63 64.7685C1285.92 65.0316 1285.28 65.4405 1284.75 65.9684C1284.21 66.4963 1283.79 67.1314 1283.52 67.8321C1283.24 68.5328 1283.12 69.2834 1283.16 70.0348ZM1304.86 70.0348V64.6875H1302.54V65.9815C1302.14 65.4719 1301.63 65.0641 1301.05 64.7924C1300.46 64.5208 1299.82 64.3931 1299.18 64.4201C1298.45 64.4193 1297.74 64.5653 1297.07 64.8493C1296.41 65.1333 1295.81 65.5493 1295.31 66.0722C1294.81 66.5951 1294.42 67.214 1294.16 67.8915C1293.91 68.5689 1293.8 69.2908 1293.83 70.0134C1293.8 70.7361 1293.91 71.458 1294.16 72.1354C1294.42 72.8128 1294.81 73.4317 1295.31 73.9546C1295.81 74.4775 1296.41 74.8936 1297.07 75.1776C1297.74 75.4615 1298.45 75.6076 1299.18 75.6068C1299.82 75.6338 1300.46 75.5061 1301.05 75.2345C1301.63 74.9628 1302.14 74.555 1302.54 74.0454V75.4036H1304.86V70.0348ZM1296.24 70.0348C1296.24 69.1839 1296.57 68.3678 1297.18 67.7661C1297.78 67.1644 1298.59 66.8264 1299.44 66.8264C1300.3 66.8264 1301.11 67.1644 1301.71 67.7661C1302.31 68.3678 1302.65 69.1839 1302.65 70.0348C1302.65 70.8858 1302.31 71.7018 1301.71 72.3035C1301.11 72.9052 1300.3 73.2433 1299.44 73.2433C1298.59 73.2433 1297.78 72.9052 1297.18 72.3035C1296.57 71.7018 1296.24 70.8858 1296.24 70.0348ZM1268.31 64.5163C1267.58 64.4948 1266.86 64.6268 1266.18 64.9036C1265.51 65.1804 1264.9 65.596 1264.39 66.1233C1263.89 66.6506 1263.5 67.2779 1263.26 67.9647C1263.01 68.6514 1262.91 69.3822 1262.96 70.1097C1262.92 70.8459 1263.02 71.5841 1263.28 72.2762C1263.53 72.9683 1263.93 73.5988 1264.45 74.1265C1264.96 74.6543 1265.58 75.0674 1266.27 75.339C1266.96 75.6107 1267.69 75.7347 1268.43 75.703C1270.02 75.7648 1271.58 75.231 1272.8 74.2058L1271.67 72.4839C1270.78 73.1744 1269.68 73.5505 1268.56 73.5534C1267.79 73.6227 1267.02 73.3886 1266.42 72.9012C1265.82 72.4137 1265.44 71.7113 1265.35 70.9439H1273.26C1273.26 70.6551 1273.26 70.3664 1273.26 70.0562C1273.26 66.7408 1271.18 64.4629 1268.2 64.4736L1268.31 64.5163ZM1268.26 66.5911C1268.61 66.584 1268.95 66.6453 1269.27 66.7716C1269.6 66.8978 1269.89 67.0865 1270.14 67.3269C1270.39 67.5672 1270.59 67.8545 1270.73 68.1723C1270.87 68.4902 1270.95 68.8323 1270.95 69.1792H1265.43C1265.48 68.4653 1265.79 67.7956 1266.32 67.3124C1266.85 66.8292 1267.54 66.5704 1268.26 66.5911ZM1326.41 70.1097V60.4844H1324.09V66.0564C1323.69 65.5467 1323.18 65.139 1322.6 64.8673C1322.01 64.5956 1321.37 64.4679 1320.73 64.4949C1320 64.4942 1319.29 64.6402 1318.62 64.9242C1317.96 65.2082 1317.36 65.6242 1316.86 66.1471C1316.36 66.67 1315.97 67.2889 1315.71 67.9663C1315.46 68.6438 1315.35 69.3657 1315.38 70.0883C1315.35 70.811 1315.46 71.5328 1315.71 72.2103C1315.97 72.8877 1316.36 73.5066 1316.86 74.0295C1317.36 74.5524 1317.96 74.9684 1318.62 75.2524C1319.29 75.5364 1320 75.6824 1320.73 75.6817C1321.37 75.7087 1322.01 75.581 1322.6 75.3093C1323.18 75.0376 1323.69 74.6299 1324.09 74.1202V75.4036H1326.41V70.1097ZM1329.11 74.4518C1329.2 74.4531 1329.29 74.4712 1329.38 74.5052C1329.46 74.5359 1329.54 74.5875 1329.59 74.655C1329.65 74.718 1329.7 74.7901 1329.74 74.8689C1329.78 74.9513 1329.8 75.0406 1329.8 75.1309C1329.8 75.2212 1329.78 75.3105 1329.74 75.3929C1329.71 75.4743 1329.66 75.5474 1329.59 75.6068C1329.53 75.6653 1329.46 75.7155 1329.38 75.7565C1329.29 75.7906 1329.2 75.8087 1329.11 75.81C1328.98 75.8109 1328.84 75.7718 1328.73 75.6977C1328.61 75.6236 1328.52 75.5176 1328.47 75.3929C1328.43 75.3105 1328.41 75.2212 1328.41 75.1309C1328.41 75.0406 1328.43 74.9513 1328.47 74.8689C1328.54 74.7043 1328.67 74.5736 1328.83 74.5052C1328.92 74.473 1329.02 74.455 1329.11 74.4518ZM1329.11 75.6496C1329.18 75.6595 1329.25 75.6595 1329.31 75.6496C1329.38 75.6218 1329.43 75.5858 1329.49 75.5426C1329.58 75.4427 1329.64 75.3083 1329.64 75.1683C1329.64 75.0283 1329.58 74.894 1329.49 74.794C1329.44 74.7429 1329.38 74.7058 1329.31 74.687C1329.25 74.6588 1329.18 74.6441 1329.11 74.6441C1329.04 74.6441 1328.97 74.6588 1328.91 74.687C1328.78 74.7435 1328.68 74.8479 1328.63 74.9778C1328.58 75.1078 1328.58 75.253 1328.63 75.3822C1328.66 75.4438 1328.69 75.5014 1328.74 75.5533C1328.78 75.6024 1328.84 75.6392 1328.91 75.6603C1328.98 75.6705 1329.04 75.6705 1329.11 75.6603V75.6496ZM1329.11 74.8047C1329.17 74.7843 1329.23 74.7843 1329.29 74.8047C1329.31 74.8234 1329.33 74.8466 1329.34 74.8724C1329.35 74.8983 1329.36 74.9263 1329.36 74.9544C1329.36 75.0026 1329.34 75.0487 1329.3 75.0828C1329.26 75.116 1329.21 75.1347 1329.15 75.1362L1329.36 75.3715H1329.2L1329 75.1362V75.4036H1328.88V74.7833L1329.11 74.8047ZM1328.95 74.9223V75.0934H1329.2C1329.2 75.0934 1329.2 75.0934 1329.2 75.04C1329.2 74.9865 1329.2 74.9865 1329.2 74.9865H1329.11L1328.95 74.9223ZM1317.74 70.1097C1317.74 69.2588 1318.08 68.4427 1318.68 67.841C1319.28 67.2393 1320.1 66.9013 1320.95 66.9013C1321.8 66.9013 1322.62 67.2393 1323.22 67.841C1323.82 68.4427 1324.16 69.2588 1324.16 70.1097C1324.16 70.9606 1323.82 71.7767 1323.22 72.3784C1322.62 72.9801 1321.8 73.3181 1320.95 73.3181C1320.1 73.3181 1319.28 72.9801 1318.68 72.3784C1318.08 71.7767 1317.74 70.9606 1317.74 70.1097ZM1239.47 70.1097V64.7623H1237.19V66.0564C1236.79 65.55 1236.28 65.1453 1235.7 64.8756C1235.11 64.606 1234.47 64.4791 1233.83 64.5056C1233.11 64.5049 1232.39 64.6509 1231.73 64.9349C1231.06 65.2189 1230.46 65.6349 1229.96 66.1578C1229.46 66.6807 1229.07 67.2996 1228.82 67.977C1228.57 68.6545 1228.45 69.3763 1228.48 70.099C1228.45 70.8216 1228.57 71.5435 1228.82 72.221C1229.07 72.8984 1229.46 73.5173 1229.96 74.0402C1230.46 74.5631 1231.06 74.9791 1231.73 75.2631C1232.39 75.5471 1233.11 75.6931 1233.83 75.6924C1234.48 75.7194 1235.12 75.5917 1235.7 75.32C1236.29 75.0483 1236.8 74.6406 1237.19 74.1309V75.4036H1239.51L1239.47 70.1097ZM1230.85 70.1097C1230.85 69.2588 1231.19 68.4427 1231.79 67.841C1232.39 67.2393 1233.21 66.9013 1234.06 66.9013C1234.91 66.9013 1235.72 67.2393 1236.33 67.841C1236.93 68.4427 1237.27 69.2588 1237.27 70.1097C1237.27 70.9606 1236.93 71.7767 1236.33 72.3784C1235.72 72.9801 1234.91 73.3181 1234.06 73.3181C1233.21 73.3181 1232.39 72.9801 1231.79 72.3784C1231.19 71.7767 1230.85 70.9606 1230.85 70.1097Z" fill="#221F20"/>
<path d="M1179.98 57.4531H1165.96V82.6392H1179.98V57.4531Z" fill="#E06A37"/>
<path d="M1166.87 70.0582C1166.87 67.6305 1167.42 65.2344 1168.47 63.0502C1169.53 60.8661 1171.08 58.9509 1172.98 57.4491C1170.62 55.5827 1167.78 54.42 1164.78 54.0941C1161.79 53.7682 1158.76 54.2924 1156.05 55.6065C1153.34 56.9206 1151.05 58.9715 1149.45 61.5245C1147.85 64.0775 1147 67.0294 1147 70.0421C1147 73.0549 1147.85 76.0067 1149.45 78.5597C1151.05 81.1127 1153.34 83.1637 1156.05 84.4778C1158.76 85.7919 1161.79 86.316 1164.78 85.9901C1167.78 85.6643 1170.62 84.5016 1172.98 82.6352C1171.07 81.1426 1169.53 79.2337 1168.47 77.0542C1167.41 74.8746 1166.86 72.4819 1166.87 70.0582Z" fill="#D63832"/>
<path d="M1198.9 70.0602C1198.88 73.0618 1198.03 76 1196.43 78.5408C1194.84 81.0817 1192.56 83.1232 1189.86 84.4334C1187.16 85.7436 1184.14 86.2698 1181.16 85.9523C1178.17 85.6348 1175.34 84.4862 1172.97 82.6372C1176.3 80.0089 1178.45 76.1717 1178.95 71.9636C1179.46 67.7555 1178.28 63.5186 1175.67 60.1782C1174.88 59.1736 1173.98 58.2686 1172.97 57.4832C1175.34 55.6342 1178.17 54.4856 1181.16 54.1681C1184.14 53.8506 1187.16 54.3768 1189.86 55.687C1192.56 56.9971 1194.84 59.0387 1196.43 61.5795C1198.03 64.1204 1198.88 67.0586 1198.9 70.0602Z" fill="#E8A141"/>
<path d="M1556.29 16H1374C1350.25 16 1331 35.252 1331 59V81.477C1331 105.225 1350.25 124.477 1374 124.477H1556.29C1580.03 124.477 1599.29 105.225 1599.29 81.477V59C1599.29 35.252 1580.03 16 1556.29 16Z" fill="white"/>
<path d="M1502.29 82.4159H1484.56C1484.33 82.4159 1484.56 82.1929 1484.56 81.9699C1484.56 81.6359 1484.79 81.3009 1484.79 80.9669C1485.02 80.5209 1484.91 79.1829 1485.49 78.9599C1496.84 78.5139 1508.66 79.8519 1519.79 78.5139C1520.48 77.9569 1521.18 77.1759 1520.48 76.3959C1520.02 75.3929 1519.55 74.3889 1518.97 73.3859C1517.47 70.3759 1516.08 67.4769 1514.57 64.4669C1514.57 64.2439 1513.88 63.6869 1514.34 63.5749C1516.19 63.6869 1519.09 63.2409 1520.71 63.7979C1521.76 66.2509 1522.45 68.8149 1523.49 71.2679C1523.61 71.6019 1523.73 72.1589 1523.96 72.3819C1524.19 71.7139 1524.42 70.9329 1524.65 70.2639C1525.35 68.0339 1526.16 65.9159 1526.85 63.6869C1526.85 63.4639 1527.09 63.4639 1527.32 63.4639C1529.06 63.6869 1531.49 63.1289 1533 63.6869C1522.34 87.0989 1528.82 81.7469 1502.52 82.4169L1502.29 82.4159Z" fill="#3975B1"/>
<path d="M1408.66 57.9969C1417.82 57.9969 1427.2 57.5509 1436.36 58.1089C1436.47 58.1089 1436.59 58.1089 1436.47 58.3319C1435.78 59.1119 1435.08 59.8919 1434.5 60.7849C1434.04 61.7879 1432.88 61.1189 1431.95 61.2309C1430.79 61.2309 1429.75 62.2339 1429.4 63.2369C1430.22 63.5719 1431.72 63.0139 1432.19 63.4599C1432.07 63.7949 1431.84 64.1299 1431.61 64.4629C1431.14 65.3549 1430.68 66.1359 1430.1 67.0279C1429.29 67.5849 1427.67 66.6929 1426.97 67.3619C1425.58 69.7029 1424.07 72.1559 1422.68 74.4969C1422.22 75.2769 1421.76 76.1689 1421.18 76.8379C1420.48 76.8379 1419.79 76.6149 1419.09 76.7269C1414.92 76.3919 1410.63 76.0569 1406.46 75.7229C1405.53 75.7229 1404.49 75.6119 1403.56 75.5009C1407.5 75.0549 1412.25 76.0579 1416.08 75.1659C1416.89 73.9399 1417.58 72.6019 1418.4 71.3759C1418.4 71.1529 1419.21 70.2609 1418.86 70.2609C1415.73 70.0379 1412.72 69.5909 1409.59 69.3689C1405.76 68.9229 1401.82 68.4769 1398 68.1419C1405.07 67.8079 1412.6 68.1419 1419.79 68.0309C1420.37 68.0309 1420.48 67.9189 1420.71 67.4739V67.1389C1419.32 66.9159 1417.82 66.6929 1416.43 66.4699C1413.53 65.9129 1410.52 65.6899 1407.73 65.0199H1419.67C1420.02 65.0199 1420.02 64.6859 1420.25 64.4639C1420.48 64.1289 1420.6 63.6839 1420.94 63.3489H1422.91C1424.65 62.6789 1421.41 62.6789 1420.25 62.4569C1414.46 61.8989 1408.66 61.2299 1402.75 60.6729C1408.89 60.2269 1417.7 60.6729 1424.77 60.5619C1425.12 60.5619 1425.46 60.1159 1425.7 59.8919C1424.88 59.5579 1423.73 59.5579 1422.91 59.5579C1418.16 59.0009 1413.41 58.6649 1408.66 57.9969Z" fill="#FE8F00"/>
<path d="M1482.13 63.4525H1484.8C1485.26 63.6755 1484.8 64.7905 1485.03 65.3485C1486.65 63.8985 1488.85 62.7845 1491.29 63.3415C1497.08 63.7875 1498.7 71.9255 1495.11 75.6045C1492.68 77.8345 1488.62 78.0575 1485.96 76.0505C1485.26 75.2705 1485.26 77.8345 1484.91 78.1685C1484.68 79.5065 1484.22 80.8445 1483.87 82.2935C1482.25 82.8515 1478.89 82.2935 1476.92 82.5165C1476.45 82.5165 1477.15 80.9565 1477.26 80.6215C1477.61 79.5065 1477.96 78.3915 1478.19 77.2775C1479.7 74.6015 1481.44 71.9255 1482.71 69.1385C1483.75 67.4665 1485.03 64.6785 1482.36 63.6765L1482.13 63.4525ZM1488.16 73.3755C1491.63 73.3755 1491.52 66.7975 1487.93 66.9085C1484.22 66.9085 1484.33 73.5985 1488.16 73.3755Z" fill="#3975B1"/>
<path d="M1514.94 71.9315C1514.94 73.4915 1514.59 75.4985 1515.63 76.9475C1514.24 77.5055 1511.93 76.9475 1510.19 77.1705C1509.61 77.0595 1509.49 76.1675 1509.26 75.7215C1509.26 75.6105 1509.14 75.6105 1509.03 75.7215C1508.45 76.2795 1507.64 76.6135 1506.94 76.9475C1504.74 77.7275 1502.08 77.8395 1499.87 77.0595C1499.76 76.9475 1499.41 76.9475 1499.29 76.8365C1496.74 75.8335 1496.4 71.9315 1498.95 70.7045C1501.61 69.3675 1504.86 69.4785 1507.64 68.5865C1507.99 68.3635 1508.8 68.5865 1508.91 68.0295C1508.91 67.5835 1508.91 67.2495 1508.45 66.9145C1507.52 66.2445 1506.02 66.3565 1504.97 66.8025C1503.93 66.9145 1503.93 68.0295 1503.35 68.1405C1501.96 67.8065 1498.6 68.0295 1497.79 67.4715C1498.95 62.4545 1506.94 63.2355 1511 63.9045C1515.29 64.5735 1515.05 68.9205 1514.94 72.2655V71.9315ZM1505.2 74.4955C1506.83 74.4955 1508.8 73.6035 1508.91 71.9315C1508.91 71.5965 1509.14 70.5935 1508.68 70.7045C1507.17 71.2625 1505.55 71.3745 1504.05 72.0425C1502.54 72.9345 1503.58 74.7185 1505.2 74.4955Z" fill="#3975B1"/>
<path d="M1430.21 67.246C1432.53 63.901 1436.93 63.121 1440.87 63.121C1443.07 63.344 1446.32 62.6749 1447.59 64.9049C1447.94 66.3549 1447.13 67.692 1446.44 68.918C1445.16 71.148 1443.54 73.378 1442.61 75.718C1442.38 76.053 1442.73 76.722 1442.26 76.945H1436.93C1436.01 77.057 1437.28 75.161 1436.7 75.385C1433.92 76.945 1430.44 77.725 1427.31 76.945C1425.69 76.611 1425.23 75.0499 1425.92 73.7119C1427.2 71.0369 1430.33 69.9219 1433.11 69.4759C1435.77 69.1409 1438.32 68.696 1440.99 68.026C1441.45 67.692 1441.8 66.466 1440.99 66.354C1439.13 66.02 1437.16 66.354 1436.01 67.804C1434.15 67.804 1432.3 67.469 1430.44 67.357L1430.21 67.246ZM1433.69 74.269C1435.89 74.269 1438.79 72.597 1439.25 70.479C1437.4 70.925 1435.31 71.148 1433.57 71.929C1432.18 72.597 1431.6 74.381 1433.69 74.269ZM1482.13 63.462C1484.68 64.466 1483.52 67.142 1482.48 68.925C1481.09 71.712 1479.47 74.388 1477.96 77.063C1473.32 77.286 1468.69 77.509 1464.05 77.063C1462.66 76.84 1461.27 75.837 1461.74 74.276C1462.66 71.266 1465.79 69.594 1468.92 69.148C1472.28 68.591 1475.87 68.925 1479.23 68.368C1482.59 65.358 1478.07 65.358 1475.76 65.58C1474.37 65.804 1472.51 65.692 1471.47 66.807C1471.01 67.253 1471.01 68.145 1470.31 68.367C1469.27 68.367 1467.88 68.702 1467.18 67.922C1467.53 66.472 1468.69 65.023 1470.08 64.354C1473.9 62.904 1478.31 62.904 1482.25 63.685L1482.13 63.462ZM1470.66 76.283C1471.24 76.172 1472.16 76.5059 1472.63 76.0599C1472.86 74.8339 1472.98 73.607 1473.21 72.493C1474.83 71.489 1474.6 69.371 1472.4 70.151C1471.59 70.263 1470.89 71.0429 1470.66 71.8239C1470.66 72.8269 1471.01 72.27 1470.31 73.273C1469.73 74.165 1469.15 75.1679 1468.57 76.0599C1468.46 76.6179 1469.85 76.172 1470.43 76.283H1470.66ZM1450.84 77.166C1449.1 77.166 1447.37 77.166 1445.86 76.497C1444.47 76.052 1443.89 74.267 1444.58 73.041C1446.67 73.041 1449.1 72.484 1450.96 72.707C1450.49 76.497 1460.11 72.595 1454.2 71.704C1452.81 71.369 1451.19 71.258 1449.8 70.812C1445.86 69.362 1449.8 64.903 1452.35 64.122C1455.13 63.008 1465.68 61.336 1464.75 66.464C1464.4 67.021 1459.88 66.91 1458.84 67.133C1458.49 67.021 1458.95 66.3529 1458.26 66.0179C1456.98 65.0149 1452.58 66.91 1455.01 67.802C1457.33 68.582 1461.04 67.8019 1462.31 70.2539C1462.66 71.1459 1462.2 72.15 1461.62 72.93C1459.19 76.163 1454.78 77.278 1450.73 77.278L1450.84 77.166Z" fill="#FE8F00"/>
<path d="M1781.29 16H1599C1575.25 16 1556 35.252 1556 59V81.477C1556 105.225 1575.25 124.477 1599 124.477H1781.29C1805.03 124.477 1824.29 105.225 1824.29 81.477V59C1824.29 35.252 1805.03 16 1781.29 16Z" fill="white"/>
<path d="M2006.29 16H1824C1800.25 16 1781 35.252 1781 59V81.477C1781 105.225 1800.25 124.477 1824 124.477H2006.29C2030.03 124.477 2049.29 105.225 2049.29 81.477V59C2049.29 35.252 2030.03 16 2006.29 16Z" fill="white"/>
<path d="M1605.01 67.5409L1610.71 61.8339L1616.44 67.5409L1619.76 64.2189L1610.71 55.1719L1601.67 64.2199L1605.01 67.5409ZM1599.32 66.5719L1596 69.8919L1599.32 73.2119L1602.64 69.8919L1599.32 66.5719ZM1605.01 72.2369L1610.71 77.9639L1616.44 72.2369L1619.76 75.5589L1610.71 84.6059L1601.67 75.5779V75.5579L1605.01 72.2369ZM1622.1 66.5669L1618.78 69.8869L1622.1 73.2069L1625.42 69.8869L1622.1 66.5669Z" fill="#F3BA2F"/>
<path d="M1614.09 69.8817L1610.71 66.5027L1608.23 69.0027L1607.93 69.2897L1607.35 69.8817L1610.71 73.2597L1614.09 69.8817ZM1630.62 62.3047H1637.85C1639.65 62.3047 1641 62.7627 1641.92 63.6787C1642.63 64.3857 1642.99 65.2827 1642.99 66.3327V66.3707C1642.99 66.8097 1642.93 67.2107 1642.82 67.5537C1642.7 67.8977 1642.55 68.2037 1642.38 68.4697C1642.19 68.7377 1641.98 68.9857 1641.73 69.1957C1641.48 69.4057 1641.21 69.5777 1640.95 69.7297C1641.84 70.0737 1642.57 70.5317 1643.08 71.1237C1643.6 71.7147 1643.87 72.5167 1643.87 73.5667V73.6047C1643.87 74.3107 1643.73 74.9407 1643.45 75.4747C1643.18 76.0097 1642.78 76.4487 1642.26 76.8117C1641.75 77.1737 1641.14 77.4417 1640.41 77.6127C1639.69 77.7847 1638.89 77.8807 1638.03 77.8807H1630.62V62.3047ZM1637.13 68.6227C1637.89 68.6227 1638.48 68.4897 1638.94 68.2407C1639.38 67.9737 1639.61 67.5537 1639.61 66.9807V66.9427C1639.61 66.4277 1639.42 66.0267 1639.04 65.7407C1638.66 65.4737 1638.1 65.3207 1637.36 65.3207H1633.96V68.6227H1637.13ZM1638.05 74.9217C1638.81 74.9217 1639.4 74.7877 1639.82 74.5017C1640.26 74.2347 1640.47 73.7957 1640.47 73.2227V73.1847C1640.47 72.6697 1640.26 72.2497 1639.86 71.9447C1639.46 71.6387 1638.81 71.4857 1637.91 71.4857H1633.94V74.9217H1638.05ZM1648.18 62.3047H1651.62V77.9187H1648.18V62.3047ZM1656.83 62.3047H1660L1667.31 71.9247V62.3047H1670.71V77.9187H1667.79L1660.23 67.9927V77.9187H1656.83V62.3047ZM1681.09 62.1887H1684.26L1690.96 77.9167H1687.37L1685.94 74.4237H1679.33L1677.9 77.9167H1674.41L1681.11 62.1887H1681.09ZM1684.7 71.3697L1682.62 66.3117L1680.54 71.3697H1684.7ZM1694.66 62.3047H1697.83L1705.14 71.9247V62.3047H1708.54V77.9187H1705.62L1698.06 67.9927V77.9187H1694.66V62.3047ZM1720.89 78.1847C1719.74 78.1847 1718.68 77.9747 1717.7 77.5547C1716.75 77.1524 1715.89 76.576 1715.16 75.8557C1714.44 75.1203 1713.87 74.2514 1713.48 73.2977C1713.07 72.298 1712.86 71.2276 1712.87 70.1477V70.1107C1712.87 69.0027 1713.08 67.9537 1713.48 66.9807C1713.88 66.0067 1714.44 65.1477 1715.16 64.4227C1715.87 63.6777 1716.73 63.1047 1717.72 62.6847C1718.71 62.2647 1719.82 62.0547 1721.02 62.0547C1721.75 62.0547 1722.42 62.1127 1723.03 62.2267C1723.64 62.3417 1724.17 62.5137 1724.67 62.7237C1725.17 62.9337 1725.6 63.1817 1726.02 63.4867C1726.44 63.7927 1726.83 64.1167 1727.19 64.4607L1725.01 66.9807C1724.45 66.463 1723.82 66.0258 1723.14 65.6817C1722.47 65.36 1721.74 65.1968 1721 65.2047C1720.36 65.2047 1719.74 65.3387 1719.19 65.5867C1718.65 65.8352 1718.16 66.1926 1717.76 66.6367C1717.36 67.0757 1717.05 67.5907 1716.82 68.1827C1716.6 68.7884 1716.49 69.4286 1716.5 70.0727V70.1107C1716.5 70.7787 1716.61 71.4087 1716.82 72.0007C1717.05 72.5917 1717.36 73.1067 1717.76 73.5647C1718.16 74.0047 1718.64 74.3667 1719.19 74.6347C1719.74 74.9017 1720.36 75.0157 1721.02 75.0157C1721.92 75.0157 1722.67 74.8437 1723.29 74.5197C1723.96 74.1602 1724.58 73.7107 1725.13 73.1837L1727.32 75.3977C1726.92 75.8367 1726.5 76.2177 1726.08 76.5617C1725.64 76.9057 1725.18 77.1917 1724.67 77.4397C1724.15 77.6877 1723.6 77.8797 1722.99 77.9937C1722.38 78.1267 1721.69 78.1837 1720.95 78.1837H1720.89V78.1847ZM1731.33 62.3047H1743.09V65.3587H1734.73V68.5277H1742.1V71.5817H1734.73V74.8647H1743.2V77.9187H1731.33V62.3047Z" fill="#F3BA2F"/>
<path d="M1757.55 64.2177C1758.55 65.1527 1759.06 66.4317 1759.06 68.0727C1759.06 69.7147 1758.56 70.9927 1757.55 71.9287C1756.56 72.8637 1755.19 73.3217 1753.43 73.3217H1750.09V77.9037H1748.16V62.8047H1753.41C1755.15 62.8047 1756.52 63.2817 1757.53 64.1987L1757.55 64.2177ZM1756.16 70.5927C1756.81 70.0007 1757.11 69.1807 1757.11 68.0727C1757.11 66.9657 1756.79 66.1457 1756.16 65.5527C1755.51 64.9627 1754.59 64.6757 1753.37 64.6757H1750.09V71.4517H1753.37C1754.59 71.4517 1755.53 71.1657 1756.16 70.5737V70.5927ZM1769.81 74.1417H1762.65L1761.16 77.9217H1759.18L1765.29 62.8237H1767.2L1773.32 77.9217H1771.3L1769.81 74.1417ZM1769.14 72.4247L1766.24 65.0187L1763.34 72.4247H1769.16H1769.14ZM1779.66 72.6917V77.9217H1777.75V72.6537L1772.39 62.8237H1774.45L1778.76 70.7837L1783.1 62.8237H1785L1779.64 72.7107L1779.66 72.6917Z" fill="black"/>
</g>
</g>
</g>
</g>
<defs>
<filter id="filter0_dd_8268_15444" x="-327" y="3" width="2447.29" height="250.477" filterUnits="userSpaceOnUse" color-interpolation-filters="sRGB">
<feFlood flood-opacity="0" result="BackgroundImageFix"/>
<feColorMatrix in="SourceAlpha" type="matrix" values="0 0 0 0 0 0 0 0 0 0 0 0 0 0 0 0 0 0 127 0" result="hardAlpha"/>
<feOffset dy="58"/>
<feGaussianBlur stdDeviation="35.5"/>
<feComposite in2="hardAlpha" operator="out"/>
<feColorMatrix type="matrix" values="0 0 0 0 0 0 0 0 0 0 0 0 0 0 0 0 0 0 0.1 0"/>
<feBlend mode="normal" in2="BackgroundImageFix" result="effect1_dropShadow_8268_15444"/>
<feColorMatrix in="SourceAlpha" type="matrix" values="0 0 0 0 0 0 0 0 0 0 0 0 0 0 0 0 0 0 127 0" result="hardAlpha"/>
<feOffset dy="-1"/>
<feComposite in2="hardAlpha" operator="out"/>
<feColorMatrix type="matrix" values="0 0 0 0 0.75 0 0 0 0 0.88 0 0 0 0 1 0 0 0 1 0"/>
<feBlend mode="normal" in2="effect1_dropShadow_8268_15444" result="effect2_dropShadow_8268_15444"/>
<feBlend mode="normal" in="SourceGraphic" in2="effect2_dropShadow_8268_15444" result="shape"/>
</filter>
<clipPath id="clip0_8268_15444">
<rect width="1827" height="252" fill="white"/>
</clipPath>
</defs>
</svg>
